<svg xmlns="http://www.w3.org/2000/svg" viewBox="0 0 120 150" role="img" aria-label="Muñeco animado de Maira"><defs><style>.s{fill:none;stroke:#422F0E;stroke-width:4;stroke-linecap:round;stroke-linejoin:round}.f{fill:#FFF8F2;stroke:#422F0E;stroke-width:4}.face{fill:#422F0E}</style></defs><g transform="translate(0 2)"><g><animateTransform attributeName="transform" type="translate" values="0 0;2 -4;0 0;-2 -3;0 0" dur="2.8s" repeatCount="indefinite"/><circle class="f" cx="60" cy="32" r="25"><animateTransform attributeName="transform" type="rotate" values="0 60 32;-5 60 32;4 60 32;0 60 32" dur="3.4s" repeatCount="indefinite"/></circle><circle class="face" cx="52" cy="30" r="2.2"/><circle class="face" cx="68" cy="30" r="2.2"/><path class="s" d="M52 40q8 7 16 0"/><path class="s" d="M60 57v36"/><g><path class="s" d="M60 65L27 78"/><animateTransform attributeName="transform" type="rotate" values="0 60 65;-22 60 65;8 60 65;-10 60 65;0 60 65" dur="1.7s" repeatCount="indefinite"/></g><g><path class="s" d="M60 65l32 15"/><animateTransform attributeName="transform" type="rotate" values="0 60 65;15 60 65;-8 60 65;22 60 65;0 60 65" dur="1.7s" repeatCount="indefinite"/></g><g><path class="s" d="M60 93L39 127"/><animateTransform attributeName="transform" type="rotate" values="0 60 93;18 60 93;-14 60 93;8 60 93;0 60 93" dur="1.7s" repeatCount="indefinite"/></g><g><path class="s" d="M60 93l25 31"/><animateTransform attributeName="transform" type="rotate" values="0 60 93;-18 60 93;14 60 93;-8 60 93;0 60 93" dur="1.7s" repeatCount="indefinite"/></g><path class="s" d="M27 78q-7 5-12 0M92 80q7 5 13 0"/><path class="s" d="M42 17q4-11 13-14M76 17q-4-11-13-14"/></g><g><circle cx="60" cy="32" r="29" fill="none" stroke="#EF6545" stroke-width="2" stroke-dasharray="3 8" opacity=".65"><animateTransform attributeName="transform" type="rotate" from="0 60 32" to="360 60 32" dur="8s" repeatCount="indefinite"/></circle><path d="M101 31l7 5-8 3" fill="#EF6545"><animateTransform attributeName="transform" type="rotate" from="0 60 32" to="360 60 32" dur="8s" repeatCount="indefinite"/></path></g></g></svg>